<svg 
 xmlns="http://www.w3.org/2000/svg"
 xmlns:xlink="http://www.w3.org/1999/xlink"
 width="80px" 
 height="150px"
 viewBox="0 0 80 150">
<path fill-rule="evenodd"  fill="rgb(255, 107, 6)"
 d="M69.612,149.723 L10.378,149.723 C4.886,149.723 0.392,145.197 0.392,139.666 L0.392,10.206 C0.392,4.675 4.886,0.149 10.378,0.149 L69.612,0.149 C75.104,0.149 79.598,4.675 79.598,10.206 L79.598,139.666 C79.598,145.197 75.104,149.723 69.612,149.723 ZM3.780,139.259 C3.780,143.115 6.893,146.251 10.722,146.251 L69.258,146.251 C73.087,146.251 76.201,143.115 76.191,139.259 L76.191,119.205 L3.780,119.205 L3.780,139.259 ZM76.201,115.567 L76.201,25.614 L3.790,25.614 L3.790,115.567 L76.201,115.567 ZM76.210,10.420 C76.210,6.563 73.096,3.428 69.268,3.428 L10.732,3.428 C6.903,3.428 3.790,6.563 3.790,10.420 L3.790,21.966 L76.210,21.966 L76.210,10.420 ZM65.651,14.003 C65.651,18.055 59.623,18.055 59.623,14.003 C59.623,9.957 65.651,9.957 65.651,14.003 ZM13.972,31.481 L32.155,31.481 C34.844,31.481 37.038,33.688 37.038,36.397 L37.038,54.711 C37.038,57.420 34.844,59.627 32.155,59.627 L13.972,59.627 C11.272,59.627 9.080,57.420 9.090,54.711 L9.090,36.397 C9.090,33.688 11.281,31.481 13.972,31.481 ZM12.712,36.397 L12.712,54.711 C12.712,55.412 13.275,55.979 13.972,55.979 L32.145,55.979 C32.841,55.979 33.407,55.412 33.407,54.711 L33.407,36.397 C33.407,35.697 32.841,35.127 32.145,35.127 L13.964,35.127 C13.268,35.127 12.702,35.697 12.702,36.397 L12.712,36.397 ZM13.972,63.747 L32.155,63.747 C34.844,63.747 37.038,65.954 37.038,68.666 L37.038,86.976 C37.038,89.688 34.844,91.895 32.155,91.895 L13.972,91.895 C11.272,91.895 9.080,89.688 9.090,86.976 L9.090,68.666 C9.090,65.954 11.281,63.747 13.972,63.747 ZM12.712,68.666 L12.712,86.976 C12.712,87.677 13.275,88.247 13.972,88.247 L32.145,88.247 C32.841,88.247 33.407,87.677 33.407,86.976 L33.407,68.666 C33.407,67.965 32.841,67.395 32.145,67.395 L13.964,67.395 C13.268,67.395 12.702,67.965 12.702,68.666 L12.712,68.666 ZM12.553,99.396 L67.768,99.396 C68.765,99.396 69.574,100.211 69.574,101.225 C69.574,102.229 68.765,103.044 67.768,103.044 L12.553,103.044 C11.546,103.044 10.737,102.229 10.737,101.225 C10.737,100.211 11.556,99.396 12.553,99.396 ZM12.553,107.298 L67.768,107.298 C68.765,107.298 69.574,108.112 69.574,109.126 C69.574,110.130 68.765,110.945 67.768,110.945 L12.553,110.945 C11.546,110.945 10.737,110.130 10.737,109.126 C10.737,108.112 11.556,107.298 12.553,107.298 ZM47.836,91.895 C45.146,91.895 42.955,89.688 42.955,86.976 L42.955,68.666 C42.955,65.954 45.146,63.747 47.836,63.747 L66.019,63.747 C68.709,63.747 70.900,65.954 70.900,68.666 L70.900,86.976 C70.900,89.688 68.709,91.895 66.019,91.895 L47.836,91.895 ZM67.279,86.976 L67.279,68.666 C67.279,67.965 66.715,67.395 66.019,67.395 L47.836,67.395 C47.140,67.395 46.577,67.965 46.577,68.666 L46.577,86.976 C46.577,87.677 47.140,88.247 47.836,88.247 L66.019,88.247 C66.715,88.247 67.279,87.677 67.279,86.976 ZM66.019,59.627 L47.836,59.627 C45.146,59.627 42.955,57.420 42.955,54.711 L42.955,36.397 C42.955,33.688 45.146,31.481 47.836,31.481 L66.019,31.481 C68.709,31.481 70.900,33.688 70.900,36.397 L70.900,54.711 C70.900,57.420 68.709,59.627 66.019,59.627 ZM67.279,36.397 C67.279,35.697 66.715,35.127 66.019,35.127 L47.836,35.127 C47.140,35.127 46.577,35.697 46.577,36.397 L46.577,54.711 C46.577,55.412 47.140,55.979 47.836,55.979 L66.019,55.979 C66.715,55.979 67.279,55.412 67.279,54.711 L67.279,36.397 ZM34.281,133.124 C34.281,125.839 45.137,125.839 45.137,133.124 C45.137,140.417 34.281,140.417 34.281,133.124 Z"/>
</svg>