<svg 
 xmlns="http://www.w3.org/2000/svg"
 xmlns:xlink="http://www.w3.org/1999/xlink"
 width="165px" 
 height="165px"
 viewBox="0 0 165 165">
<path fill-rule="evenodd"  fill="rgb(255, 107, 6)"
 d="M122.065,165.000 C98.396,165.000 79.140,145.624 79.140,121.807 C79.140,118.266 79.613,114.842 80.416,111.546 C73.726,114.007 66.688,115.267 59.409,115.267 C59.403,115.267 59.398,115.267 59.392,115.267 C43.556,115.267 28.660,109.289 17.445,98.434 C6.196,87.543 -0.000,73.059 -0.000,57.647 C-0.000,25.860 26.651,-0.000 59.409,-0.000 C85.589,-0.000 108.370,16.456 116.076,40.406 C117.662,40.092 119.298,39.918 120.973,39.918 L123.173,39.918 C137.146,39.918 148.515,51.352 148.515,65.406 L148.515,87.862 C158.532,95.775 165.000,108.034 165.000,121.807 C165.000,145.624 145.740,165.000 122.065,165.000 ZM59.409,6.875 C30.443,6.875 6.875,29.651 6.875,57.647 C6.875,71.180 12.327,83.910 22.225,93.493 C32.151,103.101 45.350,108.393 59.392,108.393 C59.398,108.393 59.403,108.393 59.409,108.393 C67.710,108.393 75.662,106.572 83.041,102.981 C83.221,102.894 83.405,102.833 83.590,102.780 C86.458,96.937 90.581,91.842 95.631,87.854 L95.631,65.406 C95.631,55.474 101.323,46.872 109.586,42.668 C102.837,21.462 82.644,6.875 59.409,6.875 ZM141.641,65.406 C141.641,55.143 133.357,46.793 123.173,46.793 L120.973,46.793 C118.991,46.793 117.085,47.118 115.294,47.703 C115.080,47.810 114.853,47.898 114.612,47.959 C114.606,47.960 114.601,47.960 114.595,47.962 C107.550,50.587 102.506,57.405 102.506,65.406 L102.506,83.415 C108.379,80.374 115.017,78.624 122.065,78.624 C129.119,78.624 135.763,80.376 141.641,83.420 L141.641,65.406 ZM122.065,85.499 C102.186,85.499 86.015,101.787 86.015,121.807 C86.015,141.833 102.186,158.125 122.065,158.125 C141.948,158.125 158.125,141.833 158.125,121.807 C158.125,101.787 141.948,85.499 122.065,85.499 ZM125.881,127.892 L125.881,144.134 L118.258,144.134 L118.258,127.892 C113.884,126.310 110.730,122.143 110.730,117.185 C110.730,110.875 115.809,105.762 122.073,105.762 C128.329,105.762 133.418,110.875 133.418,117.185 C133.418,122.135 130.263,126.310 125.881,127.892 ZM62.571,53.170 C72.789,57.209 77.946,62.201 77.946,70.752 C77.946,78.331 72.488,85.448 62.271,87.072 L62.271,97.075 L56.041,97.075 L56.041,87.364 C50.291,87.270 44.335,85.543 40.864,83.136 L43.253,76.699 C46.819,79.002 51.967,80.832 57.526,80.832 C64.575,80.832 69.336,76.897 69.336,71.414 C69.336,66.130 65.468,62.863 58.129,59.985 C48.005,56.144 41.757,51.727 41.757,43.374 C41.757,35.399 47.620,29.349 56.737,27.906 L56.737,18.201 L62.890,18.201 L62.890,27.527 C68.836,27.716 72.902,29.245 75.779,30.886 L73.287,37.229 C71.207,36.076 67.136,33.964 60.784,33.964 C53.153,33.964 50.282,38.371 50.282,42.214 C50.282,47.215 53.951,49.716 62.571,53.170 Z"/>
</svg>