<svg 
 xmlns="http://www.w3.org/2000/svg"
 xmlns:xlink="http://www.w3.org/1999/xlink"
 width="132px"
 height="119px"
 viewBox="0 0 132 119">
<path fill-rule="evenodd"  fill="rgb(255, 107, 6)"
 d="M129.000,48.784 L124.500,48.784 L124.500,115.325 C124.500,116.995 123.156,118.350 121.500,118.350 L10.500,118.350 C8.844,118.350 7.500,116.995 7.500,115.325 L7.500,48.784 L3.000,48.784 C1.344,48.784 -0.000,47.429 -0.000,45.760 L-0.000,30.637 C-0.000,30.008 0.204,29.401 0.562,28.889 L20.062,1.667 C20.562,0.941 21.352,0.478 22.218,0.391 C22.312,0.383 22.406,0.383 22.500,0.391 L109.500,0.391 C110.468,0.391 111.376,0.871 111.938,1.667 L131.438,28.889 C131.796,29.401 132.000,30.008 132.000,30.637 L132.000,45.760 C132.000,47.429 130.656,48.784 129.000,48.784 ZM13.500,112.301 L118.500,112.301 L118.500,48.784 L13.500,48.784 L13.500,112.301 ZM108.000,6.440 L24.000,6.440 L8.860,27.612 L123.140,27.612 L108.000,6.440 ZM126.000,33.661 L6.000,33.661 L6.000,42.735 L126.000,42.735 L126.000,33.661 ZM84.000,79.030 L48.000,79.030 C46.344,79.030 45.000,77.675 45.000,76.006 L45.000,60.883 C44.992,59.330 46.140,58.032 47.672,57.858 C47.782,57.850 47.890,57.850 48.000,57.858 L84.000,57.858 C85.656,57.858 87.000,59.213 87.000,60.883 L87.000,76.006 C87.000,77.675 85.656,79.030 84.000,79.030 ZM81.000,63.907 L51.000,63.907 L51.000,72.981 L81.000,72.981 L81.000,63.907 Z"/>
</svg>