<svg 
 xmlns="http://www.w3.org/2000/svg"
 xmlns:xlink="http://www.w3.org/1999/xlink"
 width="278.5"
 height="62"
 viewBox="0 0 557 124">
<path fill-rule="evenodd"  fill="rgb(255, 255, 255)"
 d="M555.082,65.791 L521.281,65.791 L521.281,67.207 C521.281,79.245 526.022,83.696 535.307,83.696 C541.159,83.696 548.625,83.290 553.266,82.583 C553.469,82.583 553.569,82.583 553.772,82.583 C554.577,82.583 555.385,82.987 555.385,83.999 L555.385,87.438 C555.385,88.754 554.983,89.461 553.366,89.764 C547.617,90.878 542.068,91.486 535.307,91.486 C523.703,91.486 512.401,86.022 512.401,67.207 L512.401,58.103 C512.401,43.637 520.373,34.432 534.801,34.432 C549.533,34.432 556.999,43.739 556.999,58.103 L556.999,63.565 C556.999,64.881 556.293,65.791 555.082,65.791 ZM548.019,58.103 C548.019,46.673 543.681,42.221 534.801,42.221 C526.125,42.221 521.281,47.178 521.281,58.103 L521.281,59.013 L548.019,59.013 L548.019,58.103 ZM480.017,110.704 C472.349,110.704 465.791,109.694 462.867,108.883 C461.453,108.480 460.848,108.074 460.848,106.760 L460.848,103.827 C460.848,102.814 461.656,102.207 462.664,102.207 C462.764,102.207 462.867,102.207 462.967,102.207 C466.497,102.612 474.671,103.421 480.017,103.421 C489.403,103.421 491.622,101.095 491.622,91.080 L491.622,90.068 C489.200,90.675 483.348,91.486 480.320,91.486 C467.708,91.486 457.820,85.517 457.820,66.600 L457.820,59.215 C457.820,42.423 465.186,34.432 480.320,34.432 C486.275,34.432 493.641,35.646 498.382,36.760 C500.198,37.163 500.501,37.668 500.501,39.086 L500.501,90.675 C500.501,105.950 493.741,110.704 480.017,110.704 ZM491.622,43.030 C488.897,42.525 484.559,41.918 480.320,41.918 C470.333,41.918 466.700,46.774 466.700,59.215 L466.700,66.600 C466.700,79.548 471.341,83.999 480.320,83.999 C483.148,83.999 488.494,83.594 491.622,82.887 L491.622,43.030 ZM425.233,91.486 C410.199,91.486 403.239,81.673 403.239,66.498 L403.239,59.419 C403.239,44.244 410.099,34.432 425.233,34.432 C431.288,34.432 438.451,35.444 443.801,36.760 C445.614,37.163 445.917,37.668 445.917,39.086 L445.917,86.831 C445.917,88.147 445.614,88.754 443.801,89.159 C438.451,90.473 431.388,91.486 425.233,91.486 ZM437.040,42.930 C434.316,42.423 429.472,41.918 425.233,41.918 C415.246,41.918 412.119,48.695 412.119,59.419 L412.119,66.498 C412.119,77.120 415.246,83.999 425.233,83.999 C429.472,83.999 434.212,83.494 437.040,82.987 L437.040,42.930 ZM370.855,110.704 C363.185,110.704 356.628,109.694 353.702,108.883 C352.288,108.480 351.683,108.074 351.683,106.760 L351.683,103.827 C351.683,102.814 352.491,102.207 353.499,102.207 C353.601,102.207 353.702,102.207 353.802,102.207 C357.334,102.612 365.506,103.421 370.855,103.421 C380.237,103.421 382.459,101.095 382.459,91.080 L382.459,90.068 C380.037,90.675 374.185,91.486 371.158,91.486 C358.545,91.486 348.657,85.517 348.657,66.600 L348.657,59.215 C348.657,42.423 356.023,34.432 371.158,34.432 C377.109,34.432 384.475,35.646 389.220,36.760 C391.033,37.163 391.335,37.668 391.335,39.086 L391.335,90.675 C391.335,105.950 384.575,110.704 370.855,110.704 ZM382.459,43.030 C379.735,42.525 375.396,41.918 371.158,41.918 C361.168,41.918 357.536,46.774 357.536,59.215 L357.536,66.600 C357.536,79.548 362.178,83.999 371.158,83.999 C373.982,83.999 379.329,83.594 382.459,82.887 L382.459,43.030 ZM340.082,42.221 C333.220,42.221 329.890,42.423 326.056,43.234 L326.056,88.754 C326.056,89.764 325.350,90.777 324.241,90.777 L318.992,90.777 C317.984,90.777 317.178,89.866 317.178,88.754 L317.178,39.591 C317.178,38.479 317.883,37.770 318.992,37.265 C324.745,34.735 331.706,34.432 340.082,34.432 C341.393,34.432 342.199,34.533 342.199,35.949 L342.199,40.602 C342.199,41.716 341.998,42.221 340.082,42.221 ZM282.772,91.486 C267.941,91.486 260.374,81.673 260.374,66.802 L260.374,59.115 C260.374,44.244 267.941,34.432 282.772,34.432 C297.606,34.432 305.274,44.244 305.274,59.115 L305.274,66.802 C305.274,81.673 297.606,91.486 282.772,91.486 ZM296.395,59.115 C296.395,48.797 292.257,42.221 282.772,42.221 C273.389,42.221 269.253,48.695 269.253,59.115 L269.253,66.802 C269.253,77.120 273.289,83.696 282.772,83.696 C292.158,83.696 296.395,77.222 296.395,66.802 L296.395,59.115 ZM252.002,90.878 C250.084,91.182 245.947,91.486 242.316,91.486 C232.830,91.486 227.383,88.349 227.383,77.423 L227.383,25.227 C227.383,24.215 228.291,23.508 229.400,23.304 L234.344,22.496 C234.446,22.496 234.545,22.496 234.545,22.496 C235.555,22.496 236.260,23.406 236.260,24.419 L236.260,35.140 L252.002,35.140 C253.111,35.140 253.918,35.849 253.918,36.961 L253.918,40.400 C253.918,41.413 253.111,42.221 252.002,42.221 L236.260,42.221 L236.260,77.423 C236.260,83.290 238.179,84.303 243.728,84.303 L251.900,84.303 C253.313,84.303 254.020,84.708 254.020,85.719 L254.020,89.159 C254.020,90.068 253.516,90.675 252.002,90.878 ZM204.381,61.542 C212.754,66.498 215.479,70.849 215.479,76.816 C215.479,87.134 207.912,91.486 196.610,91.486 C192.878,91.486 185.613,91.182 180.670,89.968 C179.357,89.664 178.550,89.057 178.550,87.945 L178.550,84.404 C178.550,83.494 179.357,82.887 180.367,82.887 C180.568,82.887 180.670,82.887 180.769,82.887 C185.613,83.494 192.979,83.999 196.610,83.999 C203.169,83.999 206.599,82.280 206.599,76.816 C206.599,73.783 204.783,71.860 199.033,68.421 L188.842,62.352 C182.687,58.608 178.550,54.259 178.550,47.887 C178.550,37.367 186.420,34.432 196.814,34.432 C202.463,34.432 207.811,34.939 212.553,35.747 C213.866,35.949 214.469,36.658 214.469,37.770 L214.469,41.109 C214.469,42.323 213.764,42.828 212.754,42.828 C212.655,42.828 212.553,42.828 212.452,42.828 C208.920,42.525 202.463,42.020 196.814,42.020 C191.163,42.020 187.430,42.727 187.430,47.887 C187.430,50.920 189.750,52.843 194.391,55.575 L204.381,61.542 ZM131.523,105.928 C131.240,106.014 131.476,106.055 131.195,106.055 C129.942,106.055 128.784,105.241 128.401,103.976 C127.932,102.429 128.135,100.793 129.678,100.323 L133.405,98.985 L133.405,94.713 C133.405,93.096 134.338,91.784 135.951,91.784 C137.564,91.784 138.497,93.096 138.497,94.713 L138.497,101.156 C138.497,102.446 138.700,103.584 137.469,103.959 L131.523,105.928 ZM135.951,83.584 C134.338,83.584 133.405,82.273 133.405,80.655 L133.405,67.769 C133.405,66.151 134.338,64.840 135.951,64.840 C137.564,64.840 138.497,66.151 138.497,67.769 L138.497,80.655 C138.497,82.273 137.564,83.584 135.951,83.584 ZM135.951,57.811 C134.338,57.811 133.405,56.500 133.405,54.883 L133.405,41.996 C133.405,40.379 134.338,39.068 135.951,39.068 C137.564,39.068 138.497,40.379 138.497,41.996 L138.497,54.883 C138.497,56.500 137.564,57.811 135.951,57.811 ZM135.951,32.038 C134.338,32.038 133.405,30.727 133.405,29.110 L133.405,24.367 L129.804,23.296 C128.239,22.904 127.623,21.314 128.014,19.744 C128.406,18.176 130.160,17.223 131.724,17.614 L137.246,19.240 C138.546,19.566 138.497,20.737 138.497,22.081 L138.497,29.110 C138.497,30.727 137.564,32.038 135.951,32.038 ZM108.884,112.306 C108.620,112.380 108.353,112.416 108.092,112.416 C106.816,112.416 105.643,111.571 105.281,110.279 C104.845,108.722 105.750,107.105 107.303,106.667 L118.855,103.413 C120.409,102.975 122.021,103.883 122.457,105.440 C122.894,106.997 121.988,108.614 120.435,109.052 L108.884,112.306 ZM119.639,20.081 C119.384,20.081 119.126,20.048 118.868,19.977 L107.322,16.820 C105.766,16.395 104.848,14.785 105.273,13.224 C105.697,11.664 107.303,10.743 108.859,11.169 L120.406,14.326 C121.962,14.752 122.880,16.362 122.455,17.922 C122.101,19.225 120.923,20.081 119.639,20.081 ZM96.546,13.767 C96.292,13.767 96.033,13.734 95.776,13.663 L84.230,10.506 C82.674,10.081 81.756,8.471 82.180,6.910 C82.605,5.350 84.210,4.429 85.767,4.855 L97.313,8.012 C98.870,8.438 99.787,10.048 99.363,11.608 C99.009,12.911 97.831,13.767 96.546,13.767 ZM95.752,109.921 C97.306,109.483 98.918,110.391 99.354,111.949 C99.791,113.506 98.885,115.123 97.332,115.560 L85.781,118.815 C85.516,118.889 85.250,118.924 84.989,118.924 C83.713,118.924 82.540,118.080 82.178,116.787 C81.741,115.230 82.647,113.613 84.200,113.176 L95.752,109.921 ZM74.010,7.439 L71.400,6.792 L71.400,9.371 C71.400,10.988 68.940,12.299 67.327,12.299 C65.713,12.299 63.253,10.988 63.253,9.371 L63.253,6.709 L61.387,7.439 C59.825,7.844 58.069,6.902 57.666,5.336 C57.262,3.770 58.120,2.172 59.682,1.768 C59.682,1.768 66.557,-0.001 66.801,-0.001 L66.801,-0.001 L67.709,-0.001 C68.350,-0.001 74.020,1.918 74.020,1.918 C75.573,2.355 76.433,3.685 76.152,5.278 C75.856,6.959 75.275,7.524 74.010,7.439 ZM70.959,99.399 C70.959,101.017 68.499,102.328 66.886,102.328 C65.272,102.328 62.812,101.017 62.812,99.399 L62.812,84.170 C62.812,82.552 65.272,81.241 66.886,81.241 C68.499,81.241 70.959,82.552 70.959,84.170 L70.959,99.399 ZM66.886,41.410 C65.272,41.410 62.812,40.099 62.812,38.482 L62.812,23.252 C62.812,21.635 65.272,20.324 66.886,20.324 C68.499,20.324 70.959,21.635 70.959,23.252 L70.959,38.482 C70.959,40.099 68.499,41.410 66.886,41.410 ZM70.959,68.940 C70.959,70.558 68.499,71.869 66.886,71.869 C65.272,71.869 62.812,70.558 62.812,68.940 L62.812,53.711 C62.812,52.093 65.272,50.782 66.886,50.782 C68.499,50.782 70.959,52.093 70.959,53.711 L70.959,68.940 ZM59.761,116.560 L62.371,117.207 L62.371,114.629 C62.371,113.011 64.831,111.700 66.445,111.700 C68.058,111.700 70.518,113.011 70.518,114.629 L70.518,117.290 L72.385,116.560 C73.946,116.155 75.702,117.097 76.105,118.663 C76.509,120.229 75.651,121.827 74.089,122.231 C74.089,122.231 67.214,124.000 66.970,124.000 L66.970,124.000 L66.063,124.000 C65.422,124.000 59.751,122.081 59.751,122.081 C58.198,121.644 57.338,120.314 57.619,118.721 C57.915,117.041 58.496,116.475 59.761,116.560 ZM50.027,118.844 C49.745,118.844 49.460,118.804 49.177,118.717 L38.661,115.517 C37.117,115.047 36.246,113.412 36.715,111.864 C37.183,110.316 38.815,109.442 40.358,109.912 L50.874,113.113 C52.418,113.582 53.289,115.218 52.821,116.766 C52.438,118.030 51.279,118.844 50.027,118.844 ZM40.333,13.673 C40.057,13.754 39.779,13.793 39.506,13.793 C38.244,13.793 37.079,12.967 36.705,11.691 C36.249,10.140 37.134,8.511 38.681,8.054 L49.190,4.950 C50.739,4.491 52.363,5.380 52.818,6.931 C53.274,8.483 52.389,10.111 50.842,10.568 L40.333,13.673 ZM19.314,19.881 C19.038,19.963 18.761,20.002 18.487,20.002 C17.225,20.002 16.061,19.176 15.686,17.900 C15.230,16.349 16.115,14.720 17.663,14.263 L28.172,11.159 C29.720,10.699 31.344,11.588 31.800,13.140 C32.256,14.691 31.371,16.320 29.823,16.777 L19.314,19.881 ZM19.327,103.512 L29.843,106.712 C31.387,107.181 32.258,108.817 31.790,110.365 C31.407,111.629 30.248,112.444 28.995,112.444 C28.715,112.444 28.429,112.403 28.146,112.317 L17.630,109.116 C16.086,108.646 15.215,107.011 15.683,105.463 C16.152,103.915 17.784,103.041 19.327,103.512 ZM5.085,24.320 L5.085,29.110 C5.085,30.727 4.153,32.038 2.539,32.038 C0.926,32.038 -0.007,30.727 -0.007,29.110 L-0.007,22.081 C-0.007,20.759 0.186,19.602 1.458,19.254 L7.558,17.497 C9.114,17.074 10.547,17.994 10.970,19.555 C11.394,21.116 10.704,22.725 9.147,23.150 L5.085,24.320 ZM2.539,39.068 C4.153,39.068 5.085,40.379 5.085,41.996 L5.085,54.883 C5.085,56.500 4.153,57.811 2.539,57.811 C0.926,57.811 -0.007,56.500 -0.007,54.883 L-0.007,41.996 C-0.007,40.379 0.926,39.068 2.539,39.068 ZM2.539,64.840 C4.153,64.840 5.085,66.151 5.085,67.769 L5.085,80.655 C5.085,82.273 4.153,83.584 2.539,83.584 C0.926,83.584 -0.007,82.273 -0.007,80.655 L-0.007,67.769 C-0.007,66.151 0.926,64.840 2.539,64.840 ZM2.539,91.784 C4.153,91.784 5.085,93.096 5.085,94.713 L5.085,99.031 L9.184,100.476 C10.718,100.977 11.398,102.631 10.898,104.168 C10.495,105.404 9.193,106.189 7.964,106.189 C7.663,106.189 7.358,106.143 7.057,106.044 L1.318,103.940 C0.116,103.547 -0.007,102.424 -0.007,101.156 L-0.007,94.713 C-0.007,93.096 0.926,91.784 2.539,91.784 Z"/>
</svg>