<svg xmlns="http://www.w3.org/2000/svg" width="253" height="56" viewBox="0 0 253 56">
  <defs>
    <style>
      .cls-1 {
        fill: #ff6b06;
        fill-rule: evenodd;
      }
    </style>
  </defs>
  <path class="cls-1" d="M476.248,426.291a35.925,35.925,0,0,1-7.287-.688,1,1,0,0,1-.97-0.918v-1.606a0.748,0.748,0,0,1,.832-0.688h0.183c2.215,0.277,5.581.5,7.242,0.5,3,0,4.565-.781,4.565-3.258,0-1.378-.829-2.25-3.459-3.809l-4.657-2.754c-2.814-1.7-4.706-3.67-4.706-6.564,0-4.772,3.6-6.106,8.35-6.106a43.445,43.445,0,0,1,7.2.6,0.876,0.876,0,0,1,.875.918v1.513a0.7,0.7,0,0,1-.784.781h-0.139c-1.615-.137-4.565-0.367-7.148-0.367s-4.291.32-4.291,2.661c0,1.376,1.06,2.25,3.183,3.488l4.568,2.708c3.827,2.25,5.074,4.223,5.074,6.931,0,4.681-3.459,6.654-8.627,6.654m25.323-.274a34.884,34.884,0,0,1-4.427.274c-4.336,0-6.828-1.422-6.828-6.38V396.23a0.987,0.987,0,0,1,.922-0.874l2.26-.365h0.093a0.827,0.827,0,0,1,.784.872v4.867h7.2a0.81,0.81,0,0,1,.877.825v1.557a0.836,0.836,0,0,1-.877.827h-7.2v15.972c0,2.664.877,3.122,3.414,3.122h3.737c0.645,0,.968.183,0.968,0.641v1.562c0,0.411-.23.688-0.923,0.781m14.066,0.274c-6.78,0-10.24-4.453-10.24-11.2V411.6c0-6.744,3.46-11.2,10.24-11.2s10.288,4.454,10.288,11.2v3.489c0,6.745-3.5,11.2-10.288,11.2m6.229-14.687c0-4.678-1.892-7.662-6.229-7.662-4.287,0-6.177,2.935-6.177,7.662v3.489c0,4.681,1.844,7.665,6.177,7.665,4.291,0,6.229-2.937,6.229-7.665V411.6Zm19.973-7.665a28.97,28.97,0,0,0-6.412.46v20.653a0.875,0.875,0,0,1-.83.918h-2.4a0.877,0.877,0,0,1-.829-0.918V402.747a1.159,1.159,0,0,1,.829-1.055c2.63-1.149,5.813-1.286,9.643-1.286,0.6,0,.967.047,0.967,0.688v2.111c0,0.506-.09.734-0.967,0.734m14.07,31.073a33.5,33.5,0,0,1-7.843-.828,0.923,0.923,0,0,1-.923-0.962V431.89a0.752,0.752,0,0,1,.829-0.734h0.138c1.615,0.183,5.352.553,7.8,0.553,4.289,0,5.305-1.058,5.305-5.6V425.65a29.537,29.537,0,0,1-5.17.641c-5.764,0-10.284-2.707-10.284-11.288v-3.352c0-7.619,3.366-11.245,10.284-11.245a40.516,40.516,0,0,1,8.26,1.056c0.83,0.183.965,0.413,0.965,1.055v23.407c0,6.931-3.088,9.088-9.36,9.088m5.305-30.7a30.361,30.361,0,0,0-5.17-.5c-4.564,0-6.225,2.2-6.225,7.846V415c0,5.873,2.121,7.892,6.225,7.892a29.424,29.424,0,0,0,5.17-.5V404.307Zm28.043,20.929a38.453,38.453,0,0,1-8.489,1.058c-6.872,0-10.056-4.454-10.056-11.34v-3.212c0-6.882,3.137-11.336,10.056-11.336a38.633,38.633,0,0,1,8.489,1.056c0.83,0.183.965,0.413,0.965,1.055v21.664a0.924,0.924,0,0,1-.965,1.055m-3.093-20.974a33.681,33.681,0,0,0-5.4-.46c-4.564,0-6,3.075-6,7.94v3.212c0,4.82,1.432,7.941,6,7.941a34.215,34.215,0,0,0,5.4-.46V404.262Zm19.648,30.75a33.466,33.466,0,0,1-7.839-.828,0.924,0.924,0,0,1-.925-0.962V431.89a0.754,0.754,0,0,1,.831-0.734h0.141c1.611,0.183,5.349.553,7.792,0.553,4.292,0,5.3-1.058,5.3-5.6V425.65a29.49,29.49,0,0,1-5.167.641c-5.765,0-10.285-2.707-10.285-11.288v-3.352c0-7.619,3.366-11.245,10.285-11.245a40.517,40.517,0,0,1,8.261,1.056c0.829,0.183.966,0.413,0.966,1.055v23.407c0,6.931-3.087,9.088-9.365,9.088m5.3-30.7a30.29,30.29,0,0,0-5.167-.5c-4.564,0-6.225,2.2-6.225,7.846V415c0,5.873,2.121,7.892,6.225,7.892a29.319,29.319,0,0,0,5.167-.5V404.307Zm29.016,10.326H624.678v0.644c0,5.459,2.168,7.481,6.412,7.481a63.737,63.737,0,0,0,8.211-.506h0.232a0.651,0.651,0,0,1,.735.643v1.56a0.921,0.921,0,0,1-.922,1.055,41.841,41.841,0,0,1-8.256.784c-5.305,0-10.472-2.48-10.472-11.017v-4.13c0-6.564,3.647-10.741,10.241-10.741,6.735,0,10.148,4.221,10.148,10.741v2.475a0.886,0.886,0,0,1-.874,1.011m-3.231-3.486c0-5.188-1.983-7.2-6.043-7.2-3.966,0-6.181,2.247-6.181,7.2v0.414H636.9v-0.414ZM391.443,392.9l-2.774.794a1.1,1.1,0,0,0-.666,1.276v3.175a1.168,1.168,0,1,0,2.316,0v-2.163l1.848-.529a1.264,1.264,0,0,0,.829-1.623,1.251,1.251,0,0,0-1.553-.93m-2.282,18.208a1.19,1.19,0,0,0,1.159-1.323v-5.82a1.169,1.169,0,1,0-2.317,0v5.82a1.19,1.19,0,0,0,1.158,1.323m0,11.64a1.19,1.19,0,0,0,1.159-1.323v-5.82a1.169,1.169,0,1,0-2.317,0v5.82a1.19,1.19,0,0,0,1.158,1.323m3.023,7.63-1.865-.653v-1.95a1.168,1.168,0,1,0-2.316,0v2.909a1.1,1.1,0,0,0,.6,1.258l2.611,0.951a1.344,1.344,0,0,0,.413.065,1.422,1.422,0,0,0,1.334-.913,1.283,1.283,0,0,0-.779-1.667m9.4,2.816L396.8,431.75a1.324,1.324,0,1,0-.772,2.532l4.783,1.445a1.323,1.323,0,1,0,.772-2.531m9.566,2.891-4.783-1.446a1.323,1.323,0,1,0-.772,2.531l4.783,1.446a1.323,1.323,0,1,0,.772-2.531m-5.171-44.858a1.36,1.36,0,0,0,.376-0.053l4.78-1.4a1.323,1.323,0,1,0-.75-2.538l-4.78,1.4a1.322,1.322,0,0,0,.374,2.591m-5.155-1.19-4.78,1.4a1.323,1.323,0,0,0,.375,2.593,1.344,1.344,0,0,0,.377-0.055l4.779-1.4a1.324,1.324,0,1,0-.751-2.539m46.227,5.483,1.639,0.483v2.142a1.168,1.168,0,1,0,2.316,0v-3.175c0-.606.022-1.136-0.569-1.283l-2.511-.735a1.414,1.414,0,0,0-1.689.963,1.239,1.239,0,0,0,.814,1.605M451,403.967a1.168,1.168,0,1,0-2.316,0v5.821a1.168,1.168,0,1,0,2.316,0v-5.821Zm-1.158,10.318a1.191,1.191,0,0,0-1.159,1.323v5.82a1.169,1.169,0,1,0,2.318,0v-5.82a1.191,1.191,0,0,0-1.159-1.323m1.158,16.4v-2.909a1.168,1.168,0,1,0-2.316,0v1.929l-1.7.6a1.184,1.184,0,0,0-.581,1.65,1.329,1.329,0,0,0,1.271.938,0.252,0.252,0,0,0,.15-0.056l2.7-.891c0.56-.169.468-0.683,0.468-1.266m-19.443,3.96-5.254,1.468a1.324,1.324,0,0,0,.719,2.548l5.254-1.47a1.323,1.323,0,1,0-.719-2.546m10.508-2.94-5.254,1.469a1.323,1.323,0,0,0,.358,2.6,1.359,1.359,0,0,0,.361-0.049l5.254-1.471a1.323,1.323,0,1,0-.719-2.546m-21.136,5.938-0.849.33v-1.2c0-.73-1.12-1.322-1.853-1.322s-1.853.592-1.853,1.322v1.166l-1.188-.293c-0.576-.039-0.839.217-0.974,0.976a1.285,1.285,0,0,0,.97,1.518s2.58,0.866,2.871.866h0.413c0.111,0,3.238-.8,3.238-0.8a1.3,1.3,0,0,0,.916-1.611,1.406,1.406,0,0,0-1.691-.95M420.282,395.5c0-.731-1.119-1.324-1.853-1.324s-1.853.593-1.853,1.324v6.878c0,0.731,1.119,1.323,1.853,1.323s1.853-.592,1.853-1.323V395.5Zm-1.853,26.19c-0.734,0-1.853.593-1.853,1.323v6.878c0,0.73,1.119,1.322,1.853,1.322s1.853-.592,1.853-1.322v-6.878c0-.73-1.119-1.323-1.853-1.323m1.853-12.434c0-.731-1.119-1.323-1.853-1.323s-1.853.592-1.853,1.323v6.879c0,0.73,1.119,1.323,1.853,1.323s1.853-.593,1.853-1.323v-6.879Zm11.987-20.64-5.252-1.425a1.323,1.323,0,1,0-.7,2.552l5.251,1.426a1.323,1.323,0,1,0,.7-2.553m4.552,3.979,5.253,1.425a1.282,1.282,0,0,0,.35.047,1.322,1.322,0,0,0,.349-2.6l-5.253-1.426a1.323,1.323,0,1,0-.7,2.553m-20.893-4.238,0.849-.329v1.2c0,0.73,1.119,1.322,1.852,1.322s1.854-.592,1.854-1.322v-1.165l1.187,0.292c0.576,0.039.839-.216,0.974-0.975a1.284,1.284,0,0,0-.97-1.518S419.1,385,418.8,385h-0.412c-0.111,0-3.239.8-3.239,0.8a1.3,1.3,0,0,0-.916,1.612,1.4,1.4,0,0,0,1.692.949" transform="translate(-388 -385)"/>
</svg>
